<svg width="31" height="35" viewBox="0 0 31 35" fill="none" xmlns="http://www.w3.org/2000/svg">
<path d="M1 15.875C1 13.9894 1 13.0466 1.58579 12.4608C2.17157 11.875 3.11438 11.875 5 11.875H26C27.8856 11.875 28.8284 11.875 29.4142 12.4608C30 13.0466 30 13.9894 30 15.875V27.625C30 30.4534 30 31.8676 29.1213 32.7463C28.2426 33.625 26.8284 33.625 24 33.625H7C4.17157 33.625 2.75736 33.625 1.87868 32.7463C1 31.8676 1 30.4534 1 27.625V15.875Z" fill="#7E869E" fill-opacity="0.25" stroke="#222222" stroke-opacity="0.58" stroke-width="1.2"/>
<path d="M22.75 10.0625V8.25C22.75 6.15474 22.75 5.10711 22.441 4.26941C21.9347 2.89711 20.8529 1.81531 19.4806 1.30904C18.6429 1 17.5953 1 15.5 1V1C13.4047 1 12.3571 1 11.5194 1.30904C10.1471 1.81531 9.06531 2.89711 8.55904 4.26941C8.25 5.10711 8.25 6.15474 8.25 8.25V10.0625" stroke="#222222" stroke-opacity="0.58" stroke-width="1.2" stroke-linecap="round"/>
<circle cx="15.5" cy="22.75" r="3.625" fill="#707070"/>
</svg>
