<svg width="127" height="61" viewBox="0 0 127 61" fill="none" xmlns="http://www.w3.org/2000/svg">
<g filter="url(#filter0_d_692_195)">
<path d="M56 8.125L53.147 3.43973C52.6026 2.54565 51.6315 2 50.5847 2H19.9925C18.8519 2 17.81 2.64675 17.304 3.66888L6.65905 25.1689C6.24374 26.0077 6.24374 26.9923 6.65905 27.8311L17.304 49.3311C17.81 50.3532 18.8519 51 19.9925 51H50.5847C51.6315 51 52.6026 50.4544 53.147 49.5603L56 44.875" stroke="#FDFAFA" stroke-width="3" stroke-linecap="round"/>
</g>
<g filter="url(#filter1_d_692_195)">
<path d="M28 21.6857C28 20.7486 28.1673 19.88 28.5019 19.08C28.8365 18.2571 29.2939 17.5486 29.8739 16.9543C30.4539 16.3371 31.1454 15.8571 31.9485 15.5143C32.7516 15.1714 33.6104 15 34.525 15H39.4215C40.3209 15 41.0501 15.7291 41.0501 16.6286C41.0501 17.528 40.3209 18.2571 39.4215 18.2571H34.525C33.5212 18.2571 32.7069 18.5771 32.0823 19.2171C31.48 19.8343 31.1789 20.6571 31.1789 21.6857C31.1789 22.4629 31.4577 23.0914 32.0154 23.5714C32.5731 24.0286 33.2646 24.4286 34.09 24.7714C34.9154 25.1143 35.8077 25.4571 36.767 25.8C37.7485 26.1429 38.652 26.5657 39.4774 27.0686C40.3028 27.5714 40.9943 28.2114 41.552 28.9886C42.1097 29.7429 42.3885 30.7371 42.3885 31.9714C42.3885 32.9543 42.2101 33.88 41.8531 34.7486C41.4962 35.5943 41.0054 36.3371 40.3808 36.9771C39.7785 37.5943 39.0535 38.0857 38.2058 38.4514C37.3804 38.8171 36.4881 39 35.5289 39H29.9632C29.0638 39 28.3346 38.2709 28.3346 37.3714C28.3346 36.472 29.0638 35.7429 29.9632 35.7429H35.5289C36.622 35.7429 37.5031 35.4 38.1724 34.7143C38.8639 34.0057 39.2097 33.0914 39.2097 31.9714C39.2097 31.1943 38.9308 30.5771 38.3731 30.12C37.8154 29.64 37.1239 29.2286 36.2985 28.8857C35.4731 28.5429 34.5696 28.2 33.5881 27.8571C32.6289 27.5143 31.7366 27.0914 30.9112 26.5886C30.0858 26.0857 29.3942 25.4571 28.8365 24.7029C28.2788 23.9257 28 22.92 28 21.6857Z" fill="white"/>
<path d="M47.0653 18.2571C46.3261 18.2571 45.7269 17.6579 45.7269 16.9187V16.6286C45.7269 15.7291 46.456 15 47.3554 15H49.5827C50.6872 15 51.5827 15.8954 51.5827 17V31.3398C51.5827 31.9225 52.3686 32.1073 52.6283 31.5857L53.674 29.4857L55.2134 26.3942C55.5516 25.715 56.245 25.2857 57.0037 25.2857H57.8732C58.6319 25.2857 59.3253 25.715 59.6635 26.3942L61.2029 29.4857L62.2486 31.5857C62.5083 32.1073 63.2943 31.9225 63.2943 31.3398V16.5894C63.2943 15.7116 64.0059 15 64.8837 15C65.7615 15 66.4731 15.7116 66.4731 16.5894V37C66.4731 38.1046 65.5777 39 64.4731 39H63.8564C63.1013 39 62.4106 38.5747 62.0706 37.9005L60.0317 33.8571L58.7351 31.2857C58.1983 30.2213 56.6786 30.2213 56.1418 31.2857L54.8452 33.8571L52.8063 37.9005C52.4663 38.5747 51.7756 39 51.0205 39H50.4038C49.2992 39 48.4038 38.1046 48.4038 37V19.5956C48.4038 18.8564 47.8045 18.2571 47.0653 18.2571Z" fill="white"/>
<path d="M71.4832 37.3714C71.4832 36.472 72.2123 35.7429 73.1118 35.7429H73.6659C74.7705 35.7429 75.6659 34.8474 75.6659 33.7429V20.2571C75.6659 19.1526 74.7705 18.2571 73.6659 18.2571H73.1118C72.2123 18.2571 71.4832 17.528 71.4832 16.6286C71.4832 15.7291 72.2123 15 73.1118 15H81.3989C82.2984 15 83.0275 15.7291 83.0275 16.6286C83.0275 17.528 82.2984 18.2571 81.3989 18.2571H80.8448C79.7402 18.2571 78.8448 19.1526 78.8448 20.2571V33.7429C78.8448 34.8474 79.7402 35.7429 80.8448 35.7429H81.3989C82.2984 35.7429 83.0275 36.472 83.0275 37.3714C83.0275 38.2709 82.2984 39 81.3989 39H73.1118C72.2123 39 71.4832 38.2709 71.4832 37.3714Z" fill="white"/>
<path d="M99.2643 21.8571C99.2643 20.8286 98.9296 19.9714 98.2604 19.2857C97.5912 18.6 96.7546 18.2571 95.7508 18.2571H87.0062C86.1068 18.2571 85.3777 17.528 85.3777 16.6286C85.3777 15.7291 86.1068 15 87.0062 15H95.7508C96.6654 15 97.5243 15.1829 98.3273 15.5486C99.1527 15.9143 99.8666 16.4057 100.469 17.0229C101.071 17.64 101.551 18.3714 101.908 19.2171C102.265 20.04 102.443 20.92 102.443 21.8571C102.443 22.7943 102.265 23.6857 101.908 24.5314C101.551 25.3543 101.071 26.0743 100.469 26.6914C99.8666 27.3086 99.1527 27.8 98.3273 28.1657C97.5243 28.5314 96.6654 28.7143 95.7508 28.7143H93.2335C92.1289 28.7143 91.2335 29.6097 91.2335 30.7143V37.4106C91.2335 38.2884 90.5218 39 89.644 39C88.7662 39 88.0546 38.2884 88.0546 37.4106V27.4571C88.0546 26.3526 88.95 25.4571 90.0546 25.4571H95.7508C96.7546 25.4571 97.5912 25.1143 98.2604 24.4286C98.9296 23.7429 99.2643 22.8857 99.2643 21.8571Z" fill="white"/>
<path d="M122.506 37.3714C122.506 38.2709 121.777 39 120.877 39H110.452C109.347 39 108.452 38.1046 108.452 37V17C108.452 15.8954 109.347 15 110.452 15H120.877C121.777 15 122.506 15.7291 122.506 16.6286C122.506 17.528 121.777 18.2571 120.877 18.2571H113.631C112.526 18.2571 111.631 19.1526 111.631 20.2571V23.2857C111.631 24.3903 112.526 25.2857 113.631 25.2857H119.194C119.392 25.2857 119.591 25.3225 119.776 25.3931C121.196 25.9333 121.187 27.9632 119.75 28.4553C119.581 28.5133 119.403 28.5429 119.224 28.5429H113.631C112.526 28.5429 111.631 29.4383 111.631 30.5429V33.7429C111.631 34.8474 112.526 35.7429 113.631 35.7429H120.877C121.777 35.7429 122.506 36.472 122.506 37.3714Z" fill="white"/>
</g>
<defs>
<filter id="filter0_d_692_195" x="0.847656" y="0.5" width="60.6526" height="60" filterUnits="userSpaceOnUse" color-interpolation-filters="sRGB">
<feFlood flood-opacity="0" result="BackgroundImageFix"/>
<feColorMatrix in="SourceAlpha" type="matrix" values="0 0 0 0 0 0 0 0 0 0 0 0 0 0 0 0 0 0 127 0" result="hardAlpha"/>
<feOffset dy="4"/>
<feGaussianBlur stdDeviation="2"/>
<feComposite in2="hardAlpha" operator="out"/>
<feColorMatrix type="matrix" values="0 0 0 0 0 0 0 0 0 0 0 0 0 0 0 0 0 0 0.25 0"/>
<feBlend mode="normal" in2="BackgroundImageFix" result="effect1_dropShadow_692_195"/>
<feBlend mode="normal" in="SourceGraphic" in2="effect1_dropShadow_692_195" result="shape"/>
</filter>
<filter id="filter1_d_692_195" x="24" y="15" width="102.506" height="32" filterUnits="userSpaceOnUse" color-interpolation-filters="sRGB">
<feFlood flood-opacity="0" result="BackgroundImageFix"/>
<feColorMatrix in="SourceAlpha" type="matrix" values="0 0 0 0 0 0 0 0 0 0 0 0 0 0 0 0 0 0 127 0" result="hardAlpha"/>
<feOffset dy="4"/>
<feGaussianBlur stdDeviation="2"/>
<feComposite in2="hardAlpha" operator="out"/>
<feColorMatrix type="matrix" values="0 0 0 0 0 0 0 0 0 0 0 0 0 0 0 0 0 0 0.25 0"/>
<feBlend mode="normal" in2="BackgroundImageFix" result="effect1_dropShadow_692_195"/>
<feBlend mode="normal" in="SourceGraphic" in2="effect1_dropShadow_692_195" result="shape"/>
</filter>
</defs>
</svg>
