<svg width="47" height="47" viewBox="0 0 47 47" fill="none" xmlns="http://www.w3.org/2000/svg">
<ellipse cx="23.4739" cy="23.5" rx="17.6054" ry="17.625" fill="#23629F" fill-opacity="0.6"/>
<path d="M23.4739 10.0917C23.4739 9.94965 23.4739 9.87862 23.519 9.8345C23.5641 9.79037 23.634 9.79191 23.7739 9.79498C26.0737 9.84542 28.3255 10.4752 30.3204 11.6283C32.402 12.8314 34.1306 14.5619 35.3324 16.6459C36.5343 18.7298 37.167 21.0937 37.167 23.5C37.167 25.9063 36.5343 28.2703 35.3324 30.3542C34.1306 32.4381 32.402 34.1686 30.3204 35.3718C28.2388 36.5749 25.8775 37.2084 23.4739 37.2084C21.0702 37.2084 18.7089 36.5749 16.6273 35.3718C14.6322 34.2186 12.9614 32.5811 11.7679 30.6122C11.6954 30.4927 11.6592 30.4329 11.6748 30.3718C11.6905 30.3107 11.7519 30.2752 11.8748 30.2042L23.324 23.5866C23.3971 23.5444 23.4337 23.5232 23.4538 23.4884C23.4739 23.4536 23.4739 23.4114 23.4739 23.3269V10.0917Z" fill="#222222"/>
</svg>
