<svg width="50" height="50" viewBox="0 0 50 50" fill="none" xmlns="http://www.w3.org/2000/svg">
<circle cx="25.0003" cy="16.6667" r="8.33333" stroke="white" stroke-linecap="round"/>
<path fill-rule="evenodd" clip-rule="evenodd" d="M35.425 35.5C34.529 34.982 33.5648 34.5306 32.5452 34.1535C29.5147 33.0326 26.116 32.6129 22.7757 32.9427C19.4358 33.2725 16.2894 34.3384 13.7364 36.0176C11.1833 37.6968 9.32629 39.9229 8.43065 42.4299C8.33775 42.6899 8.47324 42.976 8.73328 43.069C8.99333 43.1619 9.27945 43.0264 9.37236 42.7663C10.183 40.4972 11.8823 38.434 14.2859 36.8531C16.6896 35.2721 19.6776 34.2535 22.874 33.9379C26.07 33.6223 29.3159 34.0253 32.1983 35.0914C32.5433 35.219 32.8811 35.3553 33.2111 35.5L35.425 35.5ZM39.5003 40.079C39.5844 40.0678 39.6669 40.0351 39.739 39.9795C39.8906 39.8628 39.9568 39.6763 39.9271 39.5H39.5003V40.079Z" fill="white"/>
<path d="M37.5 29.1667L37.5 45.8333" stroke="white" stroke-linecap="round"/>
<path d="M45.833 37.5L29.1663 37.5" stroke="white" stroke-linecap="round"/>
</svg>
