<svg width="48" height="52" viewBox="0 0 48 52" fill="none" xmlns="http://www.w3.org/2000/svg">
<path d="M31.5 17.3333C31.5 21.8821 28.1052 25.5 24 25.5C19.8948 25.5 16.5 21.8821 16.5 17.3333C16.5 12.7845 19.8948 9.16663 24 9.16663C28.1052 9.16663 31.5 12.7845 31.5 17.3333Z" stroke="white" stroke-linecap="round"/>
<path d="M11.0558 32.7787C12.0804 30.4556 14.4982 29.25 17.0372 29.25H30.9628C33.5018 29.25 35.9196 30.4556 36.9442 32.7787C37.8733 34.8854 38.8185 37.8175 38.9768 41.2488C39.0023 41.8005 38.5523 42.25 38 42.25H10C9.44772 42.25 8.99768 41.8005 9.02315 41.2488C9.18153 37.8175 10.1267 34.8854 11.0558 32.7787Z" stroke="white" stroke-linecap="round"/>
</svg>
